<svg xmlns="http://www.w3.org/2000/svg" width="69.648" height="59.373" viewBox="0 0 69.648 59.373">
  <g id="Group_20" data-name="Group 20" transform="translate(1343 -3436)">
    <g id="_002-laurel" data-name="002-laurel" transform="translate(-1343 3436)">
      <g id="Group_17" data-name="Group 17">
        <path id="Path_26" data-name="Path 26" d="M55.784,77.824a.011.011,0,0,1,0-.008,32.429,32.429,0,0,0,2.238-4.442,6.257,6.257,0,0,0,2.026.349c6.22,0,9.6-10.074,9.6-10.074-.663-.055-1.295-.081-1.892-.081a12.837,12.837,0,0,0-7.571,2.052,39.761,39.761,0,0,0,.487-5.877c6.887-1.1,5.142-12.377,5.142-12.377a13.715,13.715,0,0,0-5.858,4.168,40.58,40.58,0,0,0-.973-4.17c1.677-5.992-8.073-9.574-8.073-9.574-.861,7.749,3.108,10.3,5.482,11.131A37.112,37.112,0,0,1,57.644,56.1a24.013,24.013,0,0,0-6.868-4.976c-2.024,10.454,4,13.537,6.494,14.352q-.1.561-.206,1.112a31.424,31.424,0,0,1-1.977,6.285,24.537,24.537,0,0,0-4.075-8.346c-6.721,8.491-2.993,14.166-1.025,16.256a32.91,32.91,0,0,1-5.265,4.7c1.037-4.64-.835-10.36-.835-10.36-8.77,5.473-7.72,11.738-6.606,14.588-.8.357-1.615.7-2.457,1.02q-1.515-.583-2.931-1.235c.829-3,1.152-9.172-7.88-13.768a24.979,24.979,0,0,0-.308,8.834,32.19,32.19,0,0,1-4.045-3.777c1.968-2.089,5.694-7.765-1.025-16.256a24.542,24.542,0,0,0-4.075,8.344,31.312,31.312,0,0,1-1.96-6.213c-.081-.391-.153-.786-.221-1.186,2.5-.815,8.517-3.9,6.5-14.352a24.009,24.009,0,0,0-6.87,4.976,37.223,37.223,0,0,1,1.254-7.175c2.374-.83,6.341-3.382,5.48-11.131,0,0-9.761,3.585-8.071,9.582A40.52,40.52,0,0,0,9.7,51.534a13.729,13.729,0,0,0-5.86-4.17s-1.75,11.28,5.137,12.377a39.776,39.776,0,0,0,.487,5.877,12.837,12.837,0,0,0-7.571-2.052c-.6,0-1.229.026-1.892.081,0,0,3.38,10.074,9.6,10.074a6.261,6.261,0,0,0,2.026-.349,32.422,32.422,0,0,0,2.238,4.442.011.011,0,0,1,0,.008,13.164,13.164,0,0,0-3.248-.387,21.371,21.371,0,0,0-7.629,1.59s6.145,8.828,12.754,8.828a7.5,7.5,0,0,0,5-1.973A42.27,42.27,0,0,0,30.7,92.136,75.825,75.825,0,0,1,21.324,94.3l.48,2.861a73.869,73.869,0,0,0,13.021-3.337,73.869,73.869,0,0,0,13.022,3.337l.48-2.861a75.834,75.834,0,0,1-9.378-2.162,42.271,42.271,0,0,0,9.956-6.254,7.5,7.5,0,0,0,5,1.973c6.608,0,12.754-8.828,12.754-8.828a21.371,21.371,0,0,0-7.629-1.59,13.16,13.16,0,0,0-3.246.385ZM61.53,54.573a6.156,6.156,0,0,1,1.46-2.1,6.944,6.944,0,0,1-1.263,3.584,2.3,2.3,0,0,1-.58.5,5.31,5.31,0,0,1,.383-1.984Zm-1.169,14.9a7.165,7.165,0,0,1,4.63-2.755c-.1.162-.2.319-.3.478a11.172,11.172,0,0,1-2.349,2.7,3.71,3.71,0,0,1-2.289.92,2.846,2.846,0,0,1-.419-.032,6.759,6.759,0,0,1,.727-1.309ZM55.047,44.592a5.542,5.542,0,0,1-.925-1.726,5.786,5.786,0,0,1,2.049,2.478,2.347,2.347,0,0,1,.081.312,4.868,4.868,0,0,1-1.205-1.064Zm1.919,17.6A6.614,6.614,0,0,1,54.611,60.1,8.138,8.138,0,0,1,53.3,56.05c2.047,1.55,3.352,3.164,3.69,4.563a2.984,2.984,0,0,1-.028,1.58Zm-44.31-1.57c.336-1.4,1.643-3.018,3.692-4.569a8.141,8.141,0,0,1-1.307,4.05,6.616,6.616,0,0,1-2.355,2.088,2.984,2.984,0,0,1-.03-1.568Zm.823-15.273a5.793,5.793,0,0,1,2.049-2.484,5.48,5.48,0,0,1-.922,1.725A4.852,4.852,0,0,1,13.4,45.657a2.612,2.612,0,0,1,.078-.307ZM7.928,56.063a6.939,6.939,0,0,1-1.267-3.588,6.156,6.156,0,0,1,1.46,2.1A5.307,5.307,0,0,1,8.5,56.557,2.267,2.267,0,0,1,7.928,56.063ZM9.6,70.82a3.71,3.71,0,0,1-2.29-.92,11.171,11.171,0,0,1-2.349-2.7q-.153-.239-.3-.478a7.166,7.166,0,0,1,4.63,2.755,6.882,6.882,0,0,1,.727,1.314A2.844,2.844,0,0,1,9.6,70.82Zm6.145,14.133c-1.932,0-4.283-1.233-6.8-3.563-.3-.274-.576-.548-.842-.818a14.513,14.513,0,0,1,2.517-.234,8.777,8.777,0,0,1,6.57,2.623,9.4,9.4,0,0,1,1,1.227,4.379,4.379,0,0,1-2.446.765ZM19.526,74.7a7.041,7.041,0,0,1-1.286,3.239,3.278,3.278,0,0,1-.918-1.6c-.374-1.513.087-3.726,1.305-6.234l.047-.1a8.759,8.759,0,0,1,.852,4.695Zm9.722,13.364a3.4,3.4,0,0,1-1.5-1.078c-1.18-1.482-1.46-4.013-1.4-6.3a8.736,8.736,0,0,1,2.723,3.9,7.039,7.039,0,0,1,.182,3.481ZM41.15,86.7a3.4,3.4,0,0,1-1.409,1.207,7.183,7.183,0,0,1-.14-3.42A8.74,8.74,0,0,1,42,80.27C42.263,82.551,42.2,85.115,41.15,86.7Zm8.976-12a8.762,8.762,0,0,1,.852-4.7h0c1.25,2.542,1.728,4.787,1.35,6.322a3.258,3.258,0,0,1-.918,1.611A7.042,7.042,0,0,1,50.126,74.7Zm10.656,6.62a17.829,17.829,0,0,1-3.49,2.612,7.189,7.189,0,0,1-3.384,1.02,4.381,4.381,0,0,1-2.442-.765,9.238,9.238,0,0,1,1-1.227,8.776,8.776,0,0,1,6.57-2.621,14.5,14.5,0,0,1,2.517.232C61.307,80.821,61.049,81.072,60.782,81.32Z" transform="translate(0 -37.788)"/>
      </g>
    </g>
    <path id="Path_34" data-name="Path 34" d="M6.584-8.142l2.152-8.284H8.92l2.124,8.284ZM13.126,0h4.347L11.342-20.433H6.584L.453,0H4.475l1.3-5H11.85Z" transform="translate(-1318 3466)"/>
  </g>
</svg>
